# xmcd
#
# Track frame offsets:
# 183
# 43730
# 89640
# 130215
# 177575
# 221158
# 272483
#
# Disc length: 4142 seconds
#
# Revision: 1
# Processed by: cddbd v1.5.1PL0 Copyright (c) Steve Scherf et al.
# Submitted via: CedeCatalogueitor 2.6.0.4 http://personales.ya.com/cdcatalogueitor
#
DISCID=6b102c07
DTITLE=Gato Barbieri - Gato... Para Los Amigos
DYEAR=1981
DGENRE=Brasileña
TTITLE0=Introduction, llamerito Y Tango
TTITLE1=Carnavalito
TTITLE2=Brazil
TTITLE3=Viva Emiliano Zapata
TTITLE4=Latino America
TTITLE5=Bolivia
TTITLE6=Finale
EXTD=
EXTT0=
EXTT1=
EXTT2=
EXTT3=
EXTT4=
EXTT5=
EXTT6=
PLAYORDER=
